<?xml version="1.0" encoding="UTF-8"?>
<svg xmlns="http://www.w3.org/2000/svg" xmlns:xlink="http://www.w3.org/1999/xlink" width="312pt" height="312pt" viewBox="0 0 312 312" version="1.1">
<g id="surface1">
<path style=" stroke:none;fill-rule:nonzero;fill:rgb(83%,83%,83%);fill-opacity:1;" d="M 60.003906 24 L 284.003906 24 L 284.003906 72 L 60.003906 72 Z M 60.003906 24 "/>
<path style=" stroke:none;fill-rule:nonzero;fill:rgb(66%,66%,66%);fill-opacity:1;" d="M 60.003906 96 L 252.003906 96 L 252.003906 144 L 60.003906 144 Z M 60.003906 96 "/>
<path style=" stroke:none;fill-rule:nonzero;fill:rgb(50%,50%,50%);fill-opacity:1;" d="M 60.003906 168 L 284.003906 168 L 284.003906 216 L 60.003906 216 Z M 60.003906 168 "/>
<path style=" stroke:none;fill-rule:nonzero;fill:rgb(27%,27%,27%);fill-opacity:1;" d="M 60 240 L 252 240 L 252 288 L 60 288 Z M 60 240 "/>
<path style=" stroke:none;fill-rule:nonzero;fill:rgb(81%,81%,81%);fill-opacity:1;" d="M 27.996094 0 L 59.996094 0 L 59.996094 156 L 27.996094 156 Z M 27.996094 0 "/>
<path style=" stroke:none;fill-rule:nonzero;fill:rgb(67%,67%,67%);fill-opacity:1;" d="M 27.996094 156 L 59.996094 156 L 59.996094 312 L 27.996094 312 Z M 27.996094 156 "/>
</g>
</svg>
