<?xml version="1.0" encoding="UTF-8"?>
<svg xmlns="http://www.w3.org/2000/svg" xmlns:xlink="http://www.w3.org/1999/xlink" width="409.600006pt" height="409.600006pt" viewBox="0 0 409.600006 409.600006" version="1.1">
<g id="surface1">
<path style=" stroke:none;fill-rule:nonzero;fill:rgb(92%,92%,92%);fill-opacity:1;" d="M 360.089844 0 L 49.511719 0 L 49.511719 409.601562 L 274.566406 409.601562 L 292.570312 342.082031 L 360.089844 324.078125 Z M 360.089844 0 "/>
<path style=" stroke:none;fill-rule:nonzero;fill:rgb(82%,82%,82%);fill-opacity:1;" d="M 274.566406 324.078125 L 274.566406 409.601562 L 360.089844 324.078125 Z M 274.566406 324.078125 "/>
<path style=" stroke:none;fill-rule:nonzero;fill:rgb(61%,61%,61%);fill-opacity:1;" d="M 306.074219 78.769531 L 176.636719 78.769531 C 172.90625 78.769531 169.882812 75.746094 169.882812 72.019531 C 169.882812 68.289062 172.90625 65.265625 176.636719 65.265625 L 306.074219 65.265625 C 309.804688 65.265625 312.828125 68.289062 312.828125 72.019531 C 312.828125 75.746094 309.804688 78.769531 306.074219 78.769531 Z M 306.074219 78.769531 "/>
<path style=" stroke:none;fill-rule:nonzero;fill:rgb(48%,48%,48%);fill-opacity:1;" d="M 121.53125 96.773438 C 119.800781 96.773438 118.074219 96.113281 116.753906 94.796875 L 103.253906 81.292969 C 100.617188 78.65625 100.617188 74.382812 103.253906 71.746094 C 105.890625 69.109375 110.164062 69.109375 112.800781 71.746094 L 121.53125 80.472656 L 152.765625 49.238281 C 155.402344 46.601562 159.675781 46.601562 162.3125 49.238281 C 164.949219 51.878906 164.949219 56.152344 162.3125 58.789062 L 126.304688 94.796875 C 124.984375 96.113281 123.257812 96.773438 121.53125 96.773438 Z M 121.53125 96.773438 "/>
<path style=" stroke:none;fill-rule:nonzero;fill:rgb(61%,61%,61%);fill-opacity:1;" d="M 306.074219 141.785156 L 166.539062 141.785156 C 162.8125 141.785156 159.789062 138.761719 159.789062 135.03125 C 159.789062 131.304688 162.8125 128.28125 166.539062 128.28125 L 306.074219 128.28125 C 309.804688 128.28125 312.828125 131.304688 312.828125 135.03125 C 312.828125 138.761719 309.804688 141.785156 306.074219 141.785156 Z M 306.074219 141.785156 "/>
<path style=" stroke:none;fill-rule:nonzero;fill:rgb(61%,61%,61%);fill-opacity:1;" d="M 103.523438 117.027344 L 139.535156 117.027344 L 139.535156 153.039062 L 103.523438 153.039062 Z M 103.523438 117.027344 "/>
<path style=" stroke:none;fill-rule:nonzero;fill:rgb(61%,61%,61%);fill-opacity:1;" d="M 306.074219 204.800781 L 166.539062 204.800781 C 162.8125 204.800781 159.789062 201.777344 159.789062 198.046875 C 159.789062 194.320312 162.8125 191.296875 166.539062 191.296875 L 306.074219 191.296875 C 309.804688 191.296875 312.828125 194.320312 312.828125 198.046875 C 312.828125 201.777344 309.804688 204.800781 306.074219 204.800781 Z M 306.074219 204.800781 "/>
<path style=" stroke:none;fill-rule:nonzero;fill:rgb(61%,61%,61%);fill-opacity:1;" d="M 103.523438 180.042969 L 139.535156 180.042969 L 139.535156 216.054688 L 103.523438 216.054688 Z M 103.523438 180.042969 "/>
<path style=" stroke:none;fill-rule:nonzero;fill:rgb(61%,61%,61%);fill-opacity:1;" d="M 306.074219 267.816406 L 166.539062 267.816406 C 162.8125 267.816406 159.789062 264.792969 159.789062 261.0625 C 159.789062 257.335938 162.8125 254.3125 166.539062 254.3125 L 306.074219 254.3125 C 309.804688 254.3125 312.828125 257.335938 312.828125 261.0625 C 312.828125 264.792969 309.804688 267.816406 306.074219 267.816406 Z M 306.074219 267.816406 "/>
<path style=" stroke:none;fill-rule:nonzero;fill:rgb(61%,61%,61%);fill-opacity:1;" d="M 103.523438 243.058594 L 139.535156 243.058594 L 139.535156 279.066406 L 103.523438 279.066406 Z M 103.523438 243.058594 "/>
<path style=" stroke:none;fill-rule:nonzero;fill:rgb(61%,61%,61%);fill-opacity:1;" d="M 247.558594 330.832031 L 166.539062 330.832031 C 162.8125 330.832031 159.789062 327.808594 159.789062 324.078125 C 159.789062 320.347656 162.8125 317.328125 166.539062 317.328125 L 247.558594 317.328125 C 251.289062 317.328125 254.3125 320.347656 254.3125 324.078125 C 254.3125 327.808594 251.289062 330.832031 247.558594 330.832031 Z M 247.558594 330.832031 "/>
<path style=" stroke:none;fill-rule:nonzero;fill:rgb(61%,61%,61%);fill-opacity:1;" d="M 103.523438 306.074219 L 139.535156 306.074219 L 139.535156 342.082031 L 103.523438 342.082031 Z M 103.523438 306.074219 "/>
</g>
</svg>
