<?xml version="1.0" encoding="utf-8"?>
<!-- Generator: Adobe Illustrator 19.1.0, SVG Export Plug-In . SVG Version: 6.00 Build 0)  -->
<svg version="1.1" id="Capa_1" xmlns="http://www.w3.org/2000/svg" xmlns:xlink="http://www.w3.org/1999/xlink" x="0px" y="0px"
	 viewBox="-57 58.3 484.7 484.7" style="enable-background:new -57 58.3 484.7 484.7;" xml:space="preserve">
<style type="text/css">
	.st0{fill:#61BEB5;}
</style>
<g>
	<g>
		<path class="st0" d="M74,496.6h85.6v-87.6h51.5v87.6h85.6v-392H74V496.6z M201,150.8h51.5v51.5H201V150.8z M201,233.5h51.5V285
			H201V233.5z M201,316.3h51.5v51.5H201V316.3z M118.3,150.8h51.5v51.5h-51.5V150.8z M118.3,233.5h51.5V285h-51.5V233.5z
			 M118.3,316.3h51.5v51.5h-51.5V316.3z"/>
		<path class="st0" d="M316.7,139.7v277.2h33.1v79.7h78V139.7H316.7z M387.4,379.3h-46.9v-46.9h46.9L387.4,379.3L387.4,379.3z
			 M387.4,304h-46.9v-46.9h46.9L387.4,304L387.4,304z M387.4,228.7h-46.9v-46.9h46.9L387.4,228.7L387.4,228.7z"/>
		<path class="st0" d="M-57,496.6h78v-79.7H54V139.7H-57V496.6z M-16.7,181.8h46.9v46.9h-46.9V181.8z M-16.7,257.1h46.9V304h-46.9
			V257.1z M-16.7,332.4h46.9v46.9h-46.9V332.4z"/>
	</g>
</g>
</svg>
